<?xml version="1.0" encoding="utf-8"?>
<!-- Generator: Adobe Illustrator 15.0.0, SVG Export Plug-In . SVG Version: 6.00 Build 0)  -->
<!DOCTYPE svg PUBLIC "-//W3C//DTD SVG 1.1//EN" "http://www.w3.org/Graphics/SVG/1.1/DTD/svg11.dtd">
<svg version="1.1" id="Layer_1" xmlns="http://www.w3.org/2000/svg" xmlns:xlink="http://www.w3.org/1999/xlink" x="0px" y="0px"
	 width="76.869px" height="75.544px" viewBox="0 0 76.869 75.544" enable-background="new 0 0 76.869 75.544" xml:space="preserve">
<path fill-rule="evenodd" clip-rule="evenodd" fill="#FFFFFF" d="M38.506,1.031c-20.708,0-37.497,16.791-37.497,37.503
	c0,16.566,10.741,30.622,25.647,35.581c1.874,0.345,2.558-0.813,2.558-1.808c0-0.89-0.031-3.248-0.05-6.378
	c-10.431,2.267-12.634-5.026-12.634-5.026c-1.704-4.332-4.164-5.485-4.164-5.485c-3.403-2.327,0.259-2.28,0.259-2.28
	c3.764,0.266,5.744,3.865,5.744,3.865c3.346,5.73,8.776,4.076,10.912,3.115c0.342-2.423,1.311-4.075,2.383-5.013
	c-8.326-0.946-17.081-4.164-17.081-18.534c0-4.094,1.462-7.441,3.858-10.062c-0.385-0.948-1.673-4.762,0.368-9.923
	c0,0,3.147-1.01,10.312,3.844c2.992-0.831,6.198-1.25,9.388-1.263c3.186,0.013,6.392,0.432,9.389,1.263
	c7.16-4.854,10.303-3.844,10.303-3.844c2.046,5.161,0.758,8.975,0.373,9.923c2.401,2.621,3.854,5.969,3.854,10.062
	c0,14.406-8.768,17.576-17.121,18.505c1.346,1.157,2.545,3.446,2.545,6.944c0,5.014-0.045,9.058-0.045,10.287
	c0,1.003,0.674,2.17,2.578,1.804c14.89-4.969,25.622-19.015,25.622-35.577C76.007,17.822,59.218,1.031,38.506,1.031z"/>
</svg>
