<?xml version="1.0" encoding="utf-8"?>
<!-- Generator: Adobe Illustrator 15.0.0, SVG Export Plug-In . SVG Version: 6.00 Build 0)  -->
<!DOCTYPE svg PUBLIC "-//W3C//DTD SVG 1.1//EN" "http://www.w3.org/Graphics/SVG/1.1/DTD/svg11.dtd">
<svg version="1.1" id="Layer_1" xmlns="http://www.w3.org/2000/svg" xmlns:xlink="http://www.w3.org/1999/xlink" x="0px" y="0px"
	 width="76.869px" height="75.543px" viewBox="0 0 76.869 75.543" enable-background="new 0 0 76.869 75.543" xml:space="preserve">
<g>
	<polygon fill="#FFFFFF" points="76.111,14.829 66.119,14.829 66.119,4.23 46.058,4.23 46.058,14.829 30.352,14.829 30.352,4.23 
		10.284,4.23 10.284,14.829 0.289,14.829 0.289,26.889 10.284,26.889 10.284,32.119 30.352,42.402 30.352,26.889 46.058,26.889 
		46.058,42.402 66.119,32.119 66.119,26.889 76.111,26.889 	"/>
	<polygon fill="#FFFFFF" points="0,32.119 16.027,40.126 38.2,51.219 60.384,40.126 66.855,36.903 76.414,32.119 76.414,51.219 
		66.855,55.994 60.384,59.228 38.2,70.319 16.027,59.241 0,51.219 	"/>
</g>
</svg>
