<?xml version="1.0" encoding="utf-8"?>
<!-- Generator: Adobe Illustrator 15.0.0, SVG Export Plug-In . SVG Version: 6.00 Build 0)  -->
<!DOCTYPE svg PUBLIC "-//W3C//DTD SVG 1.1//EN" "http://www.w3.org/Graphics/SVG/1.1/DTD/svg11.dtd">
<svg version="1.1" id="Layer_1" xmlns="http://www.w3.org/2000/svg" xmlns:xlink="http://www.w3.org/1999/xlink" x="0px" y="0px"
	 width="76.869px" height="75.544px" viewBox="0 0 76.869 75.544" enable-background="new 0 0 76.869 75.544" xml:space="preserve">
<g>
	<path fill-rule="evenodd" clip-rule="evenodd" fill="#FFFFFF" d="M52.457,38.163c0,7.48-6.26,13.545-13.98,13.545
		c-7.719,0-13.979-6.064-13.979-13.545c0-1.341,0.201-2.636,0.576-3.859h-4.131v18.998c0,0.984,0.805,1.789,1.789,1.789h31.318
		c0.982,0,1.787-0.805,1.787-1.789V34.304h-3.957C52.256,35.527,52.457,36.822,52.457,38.163z"/>
	<path fill-rule="evenodd" clip-rule="evenodd" fill="#FFFFFF" d="M48.709,29.177h5.084c1.113,0,2.025-0.912,2.025-2.025v-4.846
		c0-1.115-0.912-2.025-2.025-2.025h-5.084c-1.113,0-2.023,0.91-2.023,2.025v4.846C46.686,28.265,47.596,29.177,48.709,29.177z"/>
	<ellipse fill-rule="evenodd" clip-rule="evenodd" fill="#FFFFFF" cx="38.477" cy="37.674" rx="9.033" ry="8.753"/>
	<path fill-rule="evenodd" clip-rule="evenodd" fill="#FFFFFF" d="M38.434,0.421c-20.627,0-37.35,16.723-37.35,37.352
		c0,20.626,16.723,37.349,37.35,37.349c20.629,0,37.352-16.723,37.352-37.349C75.785,17.144,59.062,0.421,38.434,0.421z
		 M60.922,54.487c0,3.174-2.598,5.771-5.771,5.771h-33.43c-3.176,0-5.773-2.598-5.773-5.771V21.056c0-3.174,2.598-5.771,5.773-5.771
		h33.43c3.174,0,5.771,2.598,5.771,5.771V54.487z"/>
</g>
</svg>
